<?xml version="1.0" encoding="UTF-8"?>
<!DOCTYPE svg PUBLIC "-//W3C//DTD SVG 1.1//EN" "http://www.w3.org/Graphics/SVG/1.1/DTD/svg11.dtd">
<!-- Creator: CorelDRAW -->
<svg xmlns="http://www.w3.org/2000/svg" xml:space="preserve" width="188.376mm" height="62.5424mm" version="1.1" style="shape-rendering:geometricPrecision; text-rendering:geometricPrecision; image-rendering:optimizeQuality; fill-rule:evenodd; clip-rule:evenodd"
viewBox="0 0 18836.58 6253.88"
 xmlns:xlink="http://www.w3.org/1999/xlink"
 xmlns:xodm="http://www.corel.com/coreldraw/odm/2003">
 <defs>
  <style type="text/css">
   <![CDATA[
    .fil4 {fill:none}
    .fil0 {fill:#1D9FCD}
    .fil1 {fill:#1E3061}
    .fil3 {fill:#1D9FCD;fill-rule:nonzero}
    .fil2 {fill:#1E3061;fill-rule:nonzero}
   ]]>
  </style>
 </defs>
 <g id="Camada_x0020_1">
  <metadata id="CorelCorpID_0Corel-Layer"/>
  <g id="_2753799292928">
   <polygon class="fil0" points="2975.15,1321.37 2343.23,1685.87 1768.35,1354.27 2975.15,658.16 4181.94,1354.27 3607.07,1685.88 "/>
   <polygon class="fil1" points="2975.15,2446.45 4525.24,1552.31 5100.12,1883.91 2975.15,3109.65 850.17,1883.91 1425.06,1552.31 "/>
   <polygon class="fil0" points="2975.15,5595.72 1210.51,4577.77 1785.38,4246.17 2975.15,4932.51 4164.91,4246.17 4739.78,4577.77 "/>
   <polygon class="fil1" points="850.17,1883.91 1424.98,1919.73 1424.98,4032.01 850.17,4363.57 "/>
   <polygon class="fil1" points="5100.12,1883.91 4525.32,1919.73 4525.32,4032.01 5100.12,4363.57 "/>
  </g>
  <g id="_2753799295088">
   <path class="fil2" d="M5929.37 2222.88l338.35 0 390.92 1311.15 390.02 -1311.15 298.81 0 -545.04 1916.85 -288.47 0 -584.59 -1916.85zm-136.59 0l322.62 0 49.88 1263.97 0 652.88 -372.5 0 0 -1916.85zm1407.31 0l323.52 0 0 1916.85 -371.15 0 0 -652.88 47.63 -1263.97zm6288.03 1081.09l-393.61 0 -1.35 -279.03 334.3 0c53.02,0 96.15,-8.99 129.85,-26.96 33.71,-17.97 58.87,-44.94 75.05,-80.43 16.17,-35.5 24.26,-78.64 24.26,-129.86 0,-58.87 -7.64,-106.04 -22.91,-141.54 -15.28,-35.5 -39.55,-61.56 -72.35,-78.19 -33.25,-17.07 -76.39,-25.16 -129.86,-25.16l-205.34 0 0 1596.93 -385.53 0 0 -1916.85 590.87 0c94.81,0 180.19,10.33 255.68,31.45 75.04,21.12 139.29,53.48 191.87,97.05 52.57,43.14 93,97.95 121.31,163.11 27.86,65.61 42.24,142.89 42.24,232.31 0,79.09 -16.18,151.87 -47.63,218.83 -31.46,66.5 -81.33,121.31 -148.73,164 -67.4,42.69 -155.02,66.06 -261.96,70.55l-96.16 103.79zm-14.38 835.76l-488.42 0 154.12 -318.58 334.3 0c51.68,0 93.01,-10.78 123.57,-32.8 31,-22.02 53.47,-51.67 67.85,-88.96 14.38,-37.3 21.57,-79.99 21.57,-128.06 0,-54.82 -6.29,-101.99 -18.87,-142.43 -12.59,-40.45 -33.71,-71 -62.46,-92.56 -29.21,-21.57 -67.86,-32.36 -117.28,-32.36l-331.6 0 2.69 -279.03 402.61 0 90.76 110.53c102.89,-3.59 184.67,16.18 246.24,58.42 61.56,42.69 105.59,97.95 132.55,165.8 26.51,68.31 39.99,140.19 39.99,216.58 0,123.12 -22.92,226.47 -69.2,310.04 -45.84,84.03 -113.23,146.93 -202.2,189.62 -88.52,42.69 -197.26,63.81 -326.22,63.81z"/>
   <path class="fil3" d="M8330.47 4166.69c-97.5,0 -183.77,-14.83 -258.82,-44.93 -75.04,-29.66 -138.39,-72.8 -190.06,-129.41 -51.68,-56.62 -91.21,-125.36 -118.62,-206.25 -26.97,-80.88 -40.45,-172.99 -40.45,-276.33l0 -117.27c0,-115.93 13.03,-217.48 39.1,-305.1 26.51,-87.17 63.81,-160.86 111.88,-220.17 48.53,-59.77 107.83,-104.24 178.38,-133.9 71,-29.21 150.98,-44.04 240.4,-44.04 89.41,0 168.5,14.83 236.35,44.04 67.86,29.21 124.46,73.24 168.95,131.65 44.94,57.97 78.64,130.3 101.55,216.13 22.91,85.83 34.15,186.03 34.15,299.7l0 168.5 -954.39 0 0 -259.27 592.67 0 0 -32.8c0,-57.97 -6.29,-106.04 -18.42,-145.13 -12.58,-38.65 -31.9,-67.86 -57.97,-87.18 -26.51,-19.32 -61.56,-28.76 -105.59,-28.76 -36.84,0 -67.85,7.19 -93.45,22.47 -25.17,14.83 -45.39,38.2 -60.67,69.65 -14.83,31.46 -25.61,72.8 -32.8,123.12 -6.74,50.32 -10.34,110.98 -10.34,181.08l0 117.27c0,65.61 5.4,120.87 17.08,165.35 11.23,44.04 28.31,79.99 50.78,107.84 22.02,27.41 49.43,47.18 82.23,59.31 32.35,11.69 70.1,17.53 113.23,17.53 64.71,0 123.56,-11.23 175.69,-34.6 52.12,-23.37 96.6,-55.27 133.45,-95.7l147.38 223.77c-25.17,33.7 -60.22,66.95 -105.14,100.19 -44.94,33.26 -98.4,60.67 -160.41,81.79 -62.46,21.12 -134.35,31.45 -216.14,31.45zm1040.97 -1450.45l0 1423.49 -369.8 0 0 -1423.49 369.8 0zm-386.88 -370.25c0,-56.62 17.98,-103.79 54.38,-140.64 36.39,-36.85 85.82,-55.27 148.27,-55.27 61.57,0 110.09,18.42 146.04,55.27 35.95,36.85 53.92,84.03 53.92,140.64 0,57.07 -17.97,104.24 -53.92,141.54 -35.95,37.3 -84.48,56.17 -146.04,56.17 -62.46,0 -111.88,-18.87 -148.27,-56.17 -36.4,-37.3 -54.38,-84.48 -54.38,-141.54zm1191.04 1820.7c-97.5,0 -183.77,-14.83 -258.82,-44.93 -75.04,-29.66 -138.39,-72.8 -190.06,-129.41 -51.68,-56.62 -91.21,-125.36 -118.62,-206.25 -26.97,-80.88 -40.45,-172.99 -40.45,-276.33l0 -117.27c0,-115.93 13.03,-217.48 39.1,-305.1 26.51,-87.17 63.81,-160.86 111.88,-220.17 48.53,-59.77 107.83,-104.24 178.38,-133.9 71,-29.21 150.98,-44.04 240.4,-44.04 89.41,0 168.5,14.83 236.35,44.04 67.86,29.21 124.46,73.24 168.95,131.65 44.94,57.97 78.64,130.3 101.55,216.13 22.91,85.83 34.15,186.03 34.15,299.7l0 168.5 -954.39 0 0 -259.27 592.67 0 0 -32.8c0,-57.97 -6.29,-106.04 -18.42,-145.13 -12.58,-38.65 -31.9,-67.86 -57.97,-87.18 -26.51,-19.32 -61.56,-28.76 -105.59,-28.76 -36.84,0 -67.85,7.19 -93.45,22.47 -25.17,14.83 -45.39,38.2 -60.67,69.65 -14.83,31.46 -25.61,72.8 -32.8,123.12 -6.74,50.32 -10.34,110.98 -10.34,181.08l0 117.27c0,65.61 5.4,120.87 17.08,165.35 11.23,44.04 28.31,79.99 50.78,107.84 22.02,27.41 49.43,47.18 82.23,59.31 32.35,11.69 70.1,17.53 113.23,17.53 64.71,0 123.56,-11.23 175.69,-34.6 52.12,-23.37 96.6,-55.27 133.45,-95.7l147.38 223.77c-25.17,33.7 -60.22,66.95 -105.14,100.19 -44.94,33.26 -98.4,60.67 -160.41,81.79 -62.46,21.12 -134.35,31.45 -216.14,31.45zm1022.55 -1133.22l0 1106.26 -368.46 0 0 -1423.49 347.34 0 21.12 317.23zm335.65 -328.46l-5.39 367.55c-16.63,-3.59 -36.4,-6.29 -59.77,-8.08 -23.36,-1.8 -43.59,-2.7 -61.11,-2.7 -41.34,0 -76.39,6.29 -105.59,19.32 -28.76,12.58 -52.58,31.46 -71.45,56.62 -18.87,24.72 -33.25,55.72 -42.69,92.56 -9.88,36.85 -15.72,78.64 -17.07,124.91l-70.1 -26.06c0,-93.01 7.19,-178.39 22.02,-256.13 14.38,-77.74 35.94,-145.13 65.15,-202.65 28.76,-57.52 63.81,-101.99 104.24,-133.9 40.9,-31.45 87.18,-47.18 139.3,-47.18 17.52,0 35.94,1.35 55.72,4.49 19.77,3.15 35.49,6.75 46.73,11.24zm757.89 1050.99c0,-24.72 -8.54,-46.74 -25.16,-66.06 -16.63,-19.32 -42.69,-39.09 -78.64,-59.76 -36.4,-20.67 -84.03,-43.59 -143.78,-69.2 -64.71,-26.52 -122.22,-53.48 -172.55,-81.79 -49.88,-27.86 -92.11,-59.31 -126.71,-93.45 -35.05,-34.15 -61.11,-73.25 -78.63,-117.28 -17.53,-43.58 -26.07,-93.9 -26.07,-150.07 0,-60.66 11.24,-116.38 33.26,-167.6 22.46,-51.68 54.82,-96.6 97.05,-135.7 42.24,-39.09 93.45,-69.65 154.57,-92.11 61.11,-22.46 129.85,-33.7 206.24,-33.7 106.94,0 198.61,18.87 275.44,56.17 76.84,37.3 136.14,88.96 177.04,155.92 41.34,66.5 62.01,144.23 62.01,232.76l-368.46 0c0,-31.46 -4.94,-59.77 -14.83,-84.93 -9.43,-24.72 -25.16,-44.49 -46.28,-58.42 -21.57,-13.93 -50.33,-21.12 -86.28,-21.12 -26.51,0 -49.88,5.84 -70.55,17.08 -20.67,11.68 -36.84,26.51 -48.98,45.38 -11.68,18.87 -17.52,41.34 -17.52,66.51 0,19.32 4.04,36.39 12.58,51.67 8.09,14.83 21.57,29.21 39.99,43.14 18.43,14.38 43.14,28.76 74.6,44.49 31,15.28 69.2,31.9 115.02,50.33 94.81,35.05 172.55,73.24 233.66,113.22 61.11,40.45 106.49,87.63 136.14,141.54 30.11,54.37 44.94,120.87 44.94,199.51 0,63.36 -12.13,120.86 -36.4,172.54 -23.81,52.13 -58.86,96.6 -104.69,134.35 -45.38,37.75 -100.19,66.95 -163.55,87.17 -63.81,20.23 -134.8,30.11 -212.99,30.11 -114.58,0 -211.64,-22.92 -290.71,-68.3 -79.09,-45.84 -138.85,-104.24 -178.84,-175.69 -40.44,-71.9 -60.66,-146.03 -60.66,-223.32l350.03 0c1.79,47.18 10.78,84.48 26.96,111.43 16.18,26.51 38.64,45.38 66.5,55.72 28.31,10.34 59.32,15.73 93.46,15.73 34.15,0 62.46,-4.5 84.93,-13.93 22.47,-8.99 39.54,-23.37 50.78,-43.14 11.23,-19.77 17.07,-43.14 17.07,-69.2zm1938.59 -279.48l0 -95.71c0,-111.88 13.49,-210.29 40,-296.55 26.96,-85.83 65.15,-158.17 115.47,-216.58 49.88,-58.42 110.09,-102.45 180.63,-133 71,-30.11 150.08,-45.39 237.71,-45.39 88.96,0 168.49,15.28 239.04,45.39 70.55,30.55 131.21,74.59 181.53,133 50.78,58.41 89.42,130.75 116.83,216.58 26.96,86.27 40.44,184.67 40.44,296.55l0 95.71c0,110.98 -13.48,208.94 -40.44,295.21 -27.41,85.82 -66.06,158.16 -116.83,217.03 -50.32,58.86 -110.53,103.34 -180.63,133 -70.55,30.1 -149.17,44.93 -237.25,44.93 -87.62,0 -166.7,-14.83 -237.7,-44.93 -70.55,-29.66 -131.2,-74.15 -181.98,-133 -51.23,-58.87 -89.86,-131.21 -116.82,-217.03 -26.51,-86.28 -40,-184.23 -40,-295.21zm368.46 -95.71l0 95.71c0,66.05 4.94,123.11 13.93,171.64 9.44,48.08 22.92,88.07 40.89,119.52 17.97,31.91 39.54,54.82 65.16,70.1 25.61,14.83 54.82,22.02 88.06,22.02 33.25,0 63.36,-7.19 89.41,-22.02 26.52,-15.28 48.08,-38.19 65.16,-70.1 17.08,-31.45 30.11,-71.45 38.2,-119.52 8.53,-48.53 12.58,-105.59 12.58,-171.64l0 -95.71c0,-64.25 -4.94,-120.86 -14.38,-169.39 -9.89,-48.98 -23.37,-88.52 -40.89,-119.97 -17.53,-31.01 -39.1,-54.82 -65.16,-71 -26.06,-16.18 -54.82,-24.27 -87.62,-24.27 -32.36,0 -61.12,8.09 -86.28,24.27 -24.72,16.18 -46.29,39.99 -64.26,71 -17.97,31.45 -31.45,71 -40.89,119.97 -8.99,48.53 -13.93,105.14 -13.93,169.39zm910.65 95.71l0 -95.71c0,-111.88 13.49,-210.29 40,-296.55 26.96,-85.83 65.15,-158.17 115.47,-216.58 49.88,-58.42 110.09,-102.45 180.63,-133 71,-30.11 150.08,-45.39 237.71,-45.39 88.96,0 168.49,15.28 239.04,45.39 70.55,30.55 131.21,74.59 181.53,133 50.78,58.41 89.42,130.75 116.83,216.58 26.96,86.27 40.44,184.67 40.44,296.55l0 95.71c0,110.98 -13.48,208.94 -40.44,295.21 -27.41,85.82 -66.06,158.16 -116.83,217.03 -50.32,58.86 -110.53,103.34 -180.63,133 -70.55,30.1 -149.17,44.93 -237.25,44.93 -87.62,0 -166.7,-14.83 -237.7,-44.93 -70.55,-29.66 -131.2,-74.15 -181.98,-133 -51.23,-58.87 -89.86,-131.21 -116.82,-217.03 -26.51,-86.28 -40,-184.23 -40,-295.21zm368.46 -95.71l0 95.71c0,66.05 4.94,123.11 13.93,171.64 9.44,48.08 22.92,88.07 40.89,119.52 17.97,31.91 39.54,54.82 65.16,70.1 25.61,14.83 54.82,22.02 88.06,22.02 33.25,0 63.36,-7.19 89.41,-22.02 26.52,-15.28 48.08,-38.19 65.16,-70.1 17.08,-31.45 30.11,-71.45 38.2,-119.52 8.53,-48.53 12.58,-105.59 12.58,-171.64l0 -95.71c0,-64.25 -4.94,-120.86 -14.38,-169.39 -9.89,-48.98 -23.37,-88.52 -40.89,-119.97 -17.53,-31.01 -39.1,-54.82 -65.16,-71 -26.06,-16.18 -54.82,-24.27 -87.62,-24.27 -32.36,0 -61.12,8.09 -86.28,24.27 -24.72,16.18 -46.29,39.99 -64.26,71 -17.97,31.45 -31.45,71 -40.89,119.97 -8.99,48.53 -13.93,105.14 -13.93,169.39zm1321.34 -1263.07l0 2022 -368.46 0 0 -2022 368.46 0zm749.04 598.51l-501.46 707.7 -301.49 338.35 -130.31 -280.38 231.41 -337.9 262.42 -427.77 439.45 0zm-384.18 1423.49l-310.94 -653.78 254.33 -234.1 478.98 887.88 -422.37 0z"/>
  </g>
  <polygon class="fil4" points="-0,0 18836.58,0 18836.58,6253.88 -0,6253.88 "/>
 </g>
</svg>
