<?xml version="1.0" encoding="UTF-8"?>
<!DOCTYPE svg PUBLIC "-//W3C//DTD SVG 1.1//EN" "http://www.w3.org/Graphics/SVG/1.1/DTD/svg11.dtd">
<!-- Creator: CorelDRAW -->
<svg xmlns="http://www.w3.org/2000/svg" xml:space="preserve" width="128.83mm" height="28.837mm" version="1.1" style="shape-rendering:geometricPrecision; text-rendering:geometricPrecision; image-rendering:optimizeQuality; fill-rule:evenodd; clip-rule:evenodd"
viewBox="0 0 20900.16 4678.24"
 xmlns:xlink="http://www.w3.org/1999/xlink"
 xmlns:xodm="http://www.corel.com/coreldraw/odm/2003">
 <defs>
  <style type="text/css">
   <![CDATA[
    .fil2 {fill:none}
    .fil1 {fill:#1D9FCD;fill-rule:nonzero}
    .fil0 {fill:#bbb;fill-rule:nonzero}
   ]]>
  </style>
 </defs>
 <g id="Camada_x0020_1">
  <metadata id="CorelCorpID_0Corel-Layer"/>
  <g id="_2753818582896">
   <path class="fil0" d="M780.23 847.61l548.94 0 634.22 2127.2 632.76 -2127.2 484.79 0 -884.27 3109.89 -468.02 0 -948.43 -3109.89zm-221.61 0l523.42 0 80.92 2050.66 0 1059.23 -604.34 0 0 -3109.89zm2283.21 0l524.88 0 0 3109.89 -602.15 0 0 -1059.23 77.27 -2050.66zm10201.68 1753.95l-638.59 0 -2.19 -452.7 542.37 0c86.01,0 156,-14.58 210.67,-43.74 54.69,-29.15 95.51,-72.91 121.75,-130.48 26.23,-57.59 39.36,-127.58 39.36,-210.69 0,-95.51 -12.39,-172.05 -37.17,-229.64 -24.79,-57.59 -64.16,-99.87 -117.37,-126.85 -53.94,-27.69 -123.93,-40.82 -210.69,-40.82l-333.14 0 0 2590.85 -625.48 0 0 -3109.89 958.62 0c153.83,0 292.34,16.76 414.81,51.02 121.74,34.26 225.99,86.76 311.29,157.46 85.28,69.99 150.89,158.92 196.82,264.63 45.2,106.44 68.53,231.83 68.53,376.89 0,128.31 -26.25,246.4 -77.27,355.03 -51.04,107.88 -131.94,196.82 -241.3,266.07 -109.34,69.26 -251.51,107.17 -425,114.45l-156.02 168.4zm-23.33 1355.94l-792.41 0 250.05 -516.87 542.37 0c83.84,0 150.91,-17.49 200.48,-53.21 50.29,-35.72 86.74,-83.82 110.07,-144.34 23.33,-60.51 34.99,-129.77 34.99,-207.77 0,-88.93 -10.2,-165.48 -30.61,-231.08 -20.42,-65.62 -54.69,-115.18 -101.33,-150.18 -47.39,-34.99 -110.09,-52.5 -190.28,-52.5l-537.99 0 4.36 -452.7 653.19 0 147.26 179.33c166.94,-5.82 299.61,26.25 399.49,94.78 99.87,69.26 171.32,158.92 215.05,268.99 43.01,110.82 64.88,227.45 64.88,351.37 0,199.75 -37.18,367.42 -112.26,503.01 -74.37,136.32 -183.71,238.38 -328.05,307.64 -143.62,69.26 -320.03,103.52 -529.26,103.52z"/>
   <path class="fil1" d="M4675.76 4001.23c-158.19,0 -298.15,-24.06 -419.9,-72.89 -121.74,-48.12 -224.53,-118.1 -308.35,-209.96 -83.84,-91.85 -147.99,-203.39 -192.45,-334.62 -43.75,-131.21 -65.62,-280.66 -65.62,-448.32l0 -190.26c0,-188.09 21.14,-352.83 63.43,-495 43.01,-141.42 103.52,-260.98 181.52,-357.2 78.73,-96.97 174.95,-169.13 289.4,-217.24 115.18,-47.39 244.95,-71.45 390.02,-71.45 145.07,0 273.37,24.06 383.45,71.45 110.09,47.39 201.93,118.82 274.1,213.59 72.91,94.04 127.58,211.4 164.76,350.64 37.17,139.24 55.4,301.81 55.4,486.24l0 273.37 -1548.39 0 0 -420.63 961.54 0 0 -53.21c0,-94.04 -10.2,-172.05 -29.88,-235.46 -20.41,-62.7 -51.75,-110.09 -94.04,-141.43 -43.01,-31.34 -99.87,-46.66 -171.32,-46.66 -59.77,0 -110.07,11.66 -151.62,36.45 -40.83,24.06 -73.64,61.97 -98.43,112.99 -24.06,51.04 -41.55,118.1 -53.21,199.75 -10.93,81.63 -16.77,180.06 -16.77,293.78l0 190.26c0,106.44 8.76,196.1 27.71,268.26 18.22,71.45 45.93,129.77 82.38,174.97 35.72,44.47 80.19,76.54 133.4,96.22 52.48,18.96 113.72,28.44 183.71,28.44 104.98,0 200.47,-18.22 285.04,-56.13 84.55,-37.91 156.73,-89.66 216.51,-155.27l239.11 363.04c-40.83,54.67 -97.7,108.61 -170.59,162.55 -72.91,53.96 -159.65,98.43 -260.25,132.69 -101.33,34.26 -217.97,51.02 -350.66,51.02zm1688.87 -2353.2l0 2309.46 -599.96 0 0 -2309.46 599.96 0zm-627.67 -600.69c0,-91.85 29.17,-168.4 88.22,-228.18 59.04,-59.78 139.23,-89.66 240.56,-89.66 99.89,0 178.62,29.88 236.94,89.66 58.32,59.78 87.47,136.32 87.47,228.18 0,92.58 -29.15,169.13 -87.47,229.64 -58.32,60.51 -137.05,91.12 -236.94,91.12 -101.33,0 -181.52,-30.61 -240.56,-91.12 -59.05,-60.51 -88.22,-137.05 -88.22,-229.64zm1932.34 2953.89c-158.19,0 -298.15,-24.06 -419.9,-72.89 -121.74,-48.12 -224.53,-118.1 -308.35,-209.96 -83.84,-91.85 -147.99,-203.39 -192.45,-334.62 -43.75,-131.21 -65.62,-280.66 -65.62,-448.32l0 -190.26c0,-188.09 21.14,-352.83 63.43,-495 43.01,-141.42 103.52,-260.98 181.52,-357.2 78.73,-96.97 174.95,-169.13 289.4,-217.24 115.18,-47.39 244.95,-71.45 390.02,-71.45 145.07,0 273.37,24.06 383.45,71.45 110.09,47.39 201.93,118.82 274.1,213.59 72.91,94.04 127.58,211.4 164.76,350.64 37.17,139.24 55.4,301.81 55.4,486.24l0 273.37 -1548.39 0 0 -420.63 961.54 0 0 -53.21c0,-94.04 -10.2,-172.05 -29.88,-235.46 -20.41,-62.7 -51.75,-110.09 -94.04,-141.43 -43.01,-31.34 -99.87,-46.66 -171.32,-46.66 -59.77,0 -110.07,11.66 -151.62,36.45 -40.83,24.06 -73.64,61.97 -98.43,112.99 -24.06,51.04 -41.55,118.1 -53.21,199.75 -10.93,81.63 -16.77,180.06 -16.77,293.78l0 190.26c0,106.44 8.76,196.1 27.71,268.26 18.22,71.45 45.93,129.77 82.38,174.97 35.72,44.47 80.19,76.54 133.4,96.22 52.48,18.96 113.72,28.44 183.71,28.44 104.98,0 200.47,-18.22 285.04,-56.13 84.55,-37.91 156.73,-89.66 216.51,-155.27l239.11 363.04c-40.83,54.67 -97.7,108.61 -170.59,162.55 -72.91,53.96 -159.65,98.43 -260.25,132.69 -101.33,34.26 -217.97,51.02 -350.66,51.02zm1658.98 -1838.52l0 1794.79 -597.79 0 0 -2309.46 563.52 0 34.26 514.68zm544.56 -532.89l-8.74 596.31c-26.98,-5.82 -59.05,-10.2 -96.97,-13.11 -37.9,-2.92 -70.72,-4.38 -99.14,-4.38 -67.07,0 -123.93,10.2 -171.32,31.34 -46.66,20.41 -85.3,51.04 -115.91,91.85 -30.61,40.1 -53.94,90.39 -69.26,150.18 -16.03,59.78 -25.5,127.58 -27.69,202.66l-113.72 -42.28c0,-150.91 11.66,-289.42 35.72,-415.54 23.33,-126.12 58.31,-235.46 105.69,-328.78 46.66,-93.31 103.52,-165.48 169.13,-217.24 66.35,-51.02 141.43,-76.54 226,-76.54 28.42,0 58.31,2.19 90.39,7.28 32.07,5.11 57.58,10.95 75.81,18.23zm1229.59 1705.12c0,-40.1 -13.85,-75.83 -40.82,-107.17 -26.98,-31.34 -69.26,-63.42 -127.58,-96.95 -59.05,-33.53 -136.32,-70.72 -233.27,-112.26 -104.98,-43.02 -198.29,-86.76 -279.94,-132.69 -80.92,-45.2 -149.45,-96.22 -205.58,-151.62 -56.86,-55.4 -99.14,-118.83 -127.56,-190.28 -28.44,-70.7 -42.29,-152.35 -42.29,-243.48 0,-98.41 18.23,-188.82 53.96,-271.91 36.44,-83.84 88.93,-156.73 157.46,-220.16 68.53,-63.42 151.62,-112.99 250.78,-149.45 99.14,-36.44 210.67,-54.67 334.6,-54.67 173.51,0 322.22,30.61 446.88,91.12 124.66,60.51 220.88,144.34 287.23,252.97 67.07,107.88 100.6,234 100.6,377.62l-597.79 0c0,-51.04 -8.01,-96.97 -24.06,-137.78 -15.3,-40.1 -40.82,-72.18 -75.08,-94.78 -34.99,-22.6 -81.65,-34.26 -139.97,-34.26 -43.01,0 -80.92,9.47 -114.45,27.71 -33.53,18.95 -59.77,43.01 -79.46,73.62 -18.95,30.61 -28.42,67.07 -28.42,107.9 0,31.34 6.55,59.04 20.41,83.82 13.12,24.06 34.99,47.39 64.88,69.99 29.9,23.33 69.99,46.66 121.02,72.18 50.29,24.79 112.26,51.75 186.61,81.65 153.83,56.86 279.94,118.82 379.08,183.69 99.14,65.62 172.78,142.16 220.88,229.64 48.85,88.2 72.91,196.1 72.91,323.68 0,102.79 -19.68,196.09 -59.05,279.93 -38.63,84.57 -95.49,156.73 -169.86,217.97 -73.62,61.24 -162.55,108.61 -265.34,141.42 -103.52,32.82 -218.7,48.85 -345.55,48.85 -185.9,0 -343.36,-37.18 -471.65,-110.8 -128.31,-74.37 -225.27,-169.13 -290.15,-285.04 -65.61,-116.64 -98.41,-236.92 -98.41,-362.31l567.89 0c2.9,76.54 17.49,137.05 43.74,180.79 26.25,43.01 62.69,73.62 107.88,90.39 45.93,16.77 96.24,25.52 151.64,25.52 55.4,0 101.33,-7.3 137.78,-22.6 36.45,-14.58 64.15,-37.91 82.38,-69.99 18.22,-32.07 27.69,-69.99 27.69,-112.26zm3145.16 -453.43l0 -155.29c0,-181.52 21.88,-341.17 64.89,-481.13 43.74,-139.24 105.69,-256.62 187.34,-351.37 80.92,-94.78 178.62,-166.22 293.05,-215.78 115.18,-48.85 243.49,-73.64 385.65,-73.64 144.34,0 273.36,24.79 387.81,73.64 114.45,49.56 212.88,121.01 294.51,215.78 82.38,94.76 145.08,212.13 189.55,351.37 43.74,139.96 65.61,299.61 65.61,481.13l0 155.29c0,180.06 -21.87,338.98 -65.61,478.95 -44.47,139.23 -107.17,256.6 -189.55,352.1 -81.63,95.49 -179.33,167.67 -293.05,215.78 -114.45,48.83 -242.02,72.89 -384.91,72.89 -142.15,0 -270.45,-24.06 -385.64,-72.89 -114.45,-48.12 -212.86,-120.29 -295.24,-215.78 -83.11,-95.51 -145.8,-212.88 -189.53,-352.1 -43.01,-139.97 -64.89,-298.89 -64.89,-478.95zm597.79 -155.29l0 155.29c0,107.15 8.01,199.74 22.6,278.47 15.31,78 37.18,142.89 66.34,193.91 29.15,51.77 64.15,88.93 105.71,113.72 41.55,24.06 88.93,35.72 142.88,35.72 53.94,0 102.79,-11.66 145.07,-35.72 43.02,-24.79 78,-61.96 105.71,-113.72 27.71,-51.02 48.85,-115.91 61.97,-193.91 13.84,-78.73 20.41,-171.32 20.41,-278.47l0 -155.29c0,-104.23 -8.01,-196.09 -23.33,-274.82 -16.04,-79.46 -37.91,-143.62 -66.34,-194.64 -28.44,-50.31 -63.43,-88.93 -105.71,-115.18 -42.28,-26.25 -88.93,-39.37 -142.15,-39.37 -52.5,0 -99.16,13.12 -139.97,39.37 -40.1,26.25 -75.1,64.88 -104.25,115.18 -29.15,51.02 -51.02,115.18 -66.34,194.64 -14.58,78.73 -22.6,170.59 -22.6,274.82zm1477.43 155.29l0 -155.29c0,-181.52 21.88,-341.17 64.89,-481.13 43.74,-139.24 105.69,-256.62 187.34,-351.37 80.92,-94.78 178.62,-166.22 293.05,-215.78 115.18,-48.85 243.49,-73.64 385.65,-73.64 144.34,0 273.36,24.79 387.81,73.64 114.45,49.56 212.88,121.01 294.51,215.78 82.38,94.76 145.08,212.13 189.55,351.37 43.74,139.96 65.61,299.61 65.61,481.13l0 155.29c0,180.06 -21.87,338.98 -65.61,478.95 -44.47,139.23 -107.17,256.6 -189.55,352.1 -81.63,95.49 -179.33,167.67 -293.05,215.78 -114.45,48.83 -242.02,72.89 -384.91,72.89 -142.15,0 -270.45,-24.06 -385.64,-72.89 -114.45,-48.12 -212.86,-120.29 -295.24,-215.78 -83.11,-95.51 -145.8,-212.88 -189.53,-352.1 -43.01,-139.97 -64.89,-298.89 -64.89,-478.95zm597.79 -155.29l0 155.29c0,107.15 8.01,199.74 22.6,278.47 15.31,78 37.18,142.89 66.34,193.91 29.15,51.77 64.15,88.93 105.71,113.72 41.55,24.06 88.93,35.72 142.88,35.72 53.94,0 102.79,-11.66 145.07,-35.72 43.02,-24.79 78,-61.96 105.71,-113.72 27.71,-51.02 48.85,-115.91 61.97,-193.91 13.84,-78.73 20.41,-171.32 20.41,-278.47l0 -155.29c0,-104.23 -8.01,-196.09 -23.33,-274.82 -16.04,-79.46 -37.91,-143.62 -66.34,-194.64 -28.44,-50.31 -63.43,-88.93 -105.71,-115.18 -42.28,-26.25 -88.93,-39.37 -142.15,-39.37 -52.5,0 -99.16,13.12 -139.97,39.37 -40.1,26.25 -75.1,64.88 -104.25,115.18 -29.15,51.02 -51.02,115.18 -66.34,194.64 -14.58,78.73 -22.6,170.59 -22.6,274.82zm2143.75 -2049.2l0 3280.48 -597.79 0 0 -3280.48 597.79 0zm1215.24 971.01l-813.57 1148.17 -489.14 548.94 -211.42 -454.89 375.43 -548.21 425.74 -694.01 712.95 0zm-623.29 2309.46l-504.47 -1060.69 412.62 -379.8 777.1 1440.49 -685.25 0z"/>
  </g>
  <rect class="fil2" x="-0.01" width="20900.16" height="4678.24"/>
 </g>
</svg>
